<?xml version="1.0" encoding="UTF-8" standalone="no"?>
<svg xmlns:dc="http://purl.org/dc/elements/1.1/" xmlns:cc="http://creativecommons.org/ns#" xmlns:rdf="http://www.w3.org/1999/02/22-rdf-syntax-ns#" xmlns:svg="http://www.w3.org/2000/svg" xmlns="http://www.w3.org/2000/svg" viewBox="0 0 2000 2000" height="2000" width="2000" xml:space="preserve" id="svg2" version="1.1">
    <metadata id="metadata8">
        <rdf:RDF>
            <cc:Work rdf:about="">
                <dc:format>image/svg+xml</dc:format>
                <dc:type rdf:resource="http://purl.org/dc/dcmitype/StillImage" />
            </cc:Work>
        </rdf:RDF>
    </metadata>
    <defs id="defs6">
        <clipPath id="clipPath18" clipPathUnits="userSpaceOnUse">
            <path id="path16" d="M 0,1500 H 1500 V 0 H 0 Z" />
        </clipPath>
    </defs>
    <g transform="matrix(1.3333333,0,0,-1.3333333,0,2000)" id="g10">
        <g id="g12">
            <g clip-path="url(#clipPath18)" id="g14">
                <g transform="translate(1464.1426,751.5713)" id="g20">
                </g>
                <g transform="translate(894.2568,972.8809)" id="g24">
                    <path id="path26" style="fill:#ffffff;fill-opacity:1;fill-rule:nonzero;stroke:none" d="m 0,0 -6.641,-3.198 4.32,-6.034 c 3.283,-4.583 5.497,-9.68 6.584,-15.154 2.026,-10.197 0.018,-20.584 -5.658,-29.248 -5.672,-8.663 -14.333,-14.564 -24.385,-16.617 -5.402,-1.109 -10.836,-1.037 -16.145,0.203 h -0.013 c 1.871,4.197 3.812,8.421 5.915,12.699 l -10.922,5.526 c -26.189,-53.295 -34.531,-102.132 -40.623,-137.788 -0.805,-4.713 -1.577,-9.235 -2.354,-13.558 -16.49,10.892 -37.784,16.787 -63.51,17.573 -1.907,25.716 -13.277,57.994 -24.388,84.265 -1.502,3.552 -2.991,6.964 -4.46,10.264 -0.19,0.428 -0.389,0.903 -0.578,1.327 -11.03,24.631 -21.15,43.047 -21.249,43.232 l -10.654,-6.046 c 0.102,-0.179 9.972,-18.141 20.79,-42.307 0.581,-1.299 1.172,-2.645 1.763,-3.988 -5.039,-4.542 -11.183,-7.716 -17.886,-9.087 -10.038,-2.055 -20.283,-0.018 -28.825,5.741 -8.536,5.759 -14.354,14.544 -16.377,24.743 -1.07,5.378 -1.001,10.85 0.205,16.261 l 1.66,7.427 -7.508,0.13 c -17.873,0.302 -33.41,13.438 -36.94,31.228 -1.767,8.893 -0.403,33.872 6.756,57.636 6.037,20.042 17.871,45.327 39.423,51.823 5.875,1.209 11.822,0.986 17.682,-0.644 l 7.341,-2.043 0.369,7.715 c 0.85,17.829 13.478,32.741 30.705,36.263 11.22,2.292 22.783,-0.58 31.714,-7.899 l 5.724,-4.689 3.486,6.573 c 5.434,10.251 14.992,17.445 26.217,19.743 19.554,4.008 100.561,-5.684 110.824,-46.887 0.921,-4.637 0.981,-9.411 0.182,-14.187 l -1.078,-6.451 6.405,-0.737 C 4.478,71.896 17.852,59.441 21.152,42.818 24.636,25.288 15.936,7.679 0,0 m 11.188,-7.805 c 17.166,11.339 26.065,32.246 21.929,53.072 -3.947,19.87 -18.816,35.22 -37.881,39.788 0.208,4.254 -0.11,8.531 -0.974,12.869 -12.931,51.932 -104.95,60.405 -125.134,56.288 -12.552,-2.569 -23.519,-9.782 -30.931,-20.154 -10.794,6.653 -23.655,8.984 -36.21,6.426 -20.391,-4.171 -35.892,-20.438 -39.664,-40.722 -5.49,0.725 -11.118,0.511 -16.958,-0.701 -51.101,-15.348 -59.19,-103.871 -55.209,-123.913 4.195,-21.122 21.221,-37.261 41.779,-40.553 -0.417,-4.843 -0.149,-9.695 0.804,-14.492 2.669,-13.44 10.335,-25.021 21.588,-32.609 8.396,-5.662 18.04,-8.598 27.895,-8.598 3.355,0 6.733,0.342 10.097,1.028 7.512,1.537 14.512,4.767 20.523,9.382 10.907,-26.395 21.476,-57.809 21.794,-81.087 l 0.084,-6.101 6.012,-0.006 c 29.954,-0.027 53.371,-7.04 69.599,-20.843 l 7.859,-6.687 2.041,10.2 c 1.439,7.185 2.78,15.039 4.225,23.491 5.309,31.073 11.754,68.572 28.857,110.543 0.606,-0.415 1.273,-0.756 2.027,-0.932 7.014,-1.639 14.187,-1.726 21.29,-0.275 13.246,2.708 24.66,10.486 32.141,21.904 7.478,11.418 10.126,25.106 7.457,38.55 -0.989,4.969 -2.678,9.7 -5.04,14.132" />
                </g>
                <g transform="translate(741.9897,955.5894)" id="g28">
                    <path id="path30" style="fill:#ffffff;fill-opacity:1;fill-rule:nonzero;stroke:none" d="m 0,0 c 0.417,-19.556 -2.768,-36.342 -5.613,-47.234 -12.647,22.685 -23.334,37.491 -23.858,38.216 l -9.832,-7.339 c 0.146,-0.2 14.799,-20.514 29.745,-49.396 l 6.025,-11.642 5.005,12.129 c 0.471,1.14 11.521,28.368 10.732,65.532 z" />
                </g>
                <g transform="translate(795.957,898.0684)" id="g32">
                    <path id="path34" style="fill:#ffffff;fill-opacity:1;fill-rule:nonzero;stroke:none" d="m 0,0 c -3.841,23.195 -10.779,47.494 -11.143,48.758 l -11.714,-3.465 c 0.107,-0.375 10.764,-37.706 12.826,-62.866 l 1.424,-17.355 9.691,14.371 c 1.127,1.672 27.66,41.065 34.417,55.539 L 24.472,40.284 C 20.497,31.771 8.491,12.968 0,0" />
                </g>
                <g transform="translate(801.3477,845.1348)" id="g36">
                    <path id="path38" style="fill:#ffffff;fill-opacity:1;fill-rule:nonzero;stroke:none" d="m 0,0 c -2.067,-4.181 -3.69,-8.493 -5.425,-12.813 -1.614,-4.347 -3.078,-8.754 -4.295,-13.253 -1.216,-4.483 -3.468,-8.926 -2.976,-13.753 0.412,-4.76 1.474,-9.739 5.025,-14.213 l 1.22,0.058 c 3.189,4.619 4.722,8.737 5.908,13.034 1.266,4.233 0.293,8.798 0.462,13.296 L 1.18,-0.316 Z" />
                </g>
                <g transform="translate(417.0566,624.7666)" id="g40">
                    <path id="path42" style="fill:#ffffff;fill-opacity:1;fill-rule:nonzero;stroke:none" d="m 0,0 c 0,9.104 -2.662,16.512 -7.984,22.223 -6.238,6.789 -15.512,10.185 -27.832,10.185 h -26.466 v -64.816 h 26.466 c 12.32,0 21.594,3.316 27.832,9.954 C -2.662,-16.745 0,-9.259 0,0 m -8.897,74.075 c 0,8.333 -2.507,15.122 -7.527,20.37 -5.782,5.864 -13.994,8.796 -24.64,8.796 H -62.282 V 44.678 h 21.218 c 10.646,0 18.858,2.929 24.64,8.796 5.02,5.245 7.527,12.111 7.527,20.601 M 17.797,-1.157 c 0,-11.112 -3.88,-20.834 -11.635,-29.167 -9.281,-10.033 -22.358,-15.047 -39.239,-15.047 H -79.163 V 86.576 c 0,16.665 -2.662,26.159 -7.984,28.472 v 1.389 h 49.049 c 15.515,0 27.223,-4.246 35.135,-12.732 6.535,-7.099 9.809,-15.897 9.809,-26.388 0,-19.293 -7.911,-31.408 -23.727,-36.344 23.119,-4.94 34.678,-18.982 34.678,-42.13" />
                </g>
                <g transform="translate(543.4429,687.2676)" id="g44">
                    <path id="path46" style="fill:#ffffff;fill-opacity:1;fill-rule:nonzero;stroke:none" d="m 0,0 -3.42,-14.354 c -4.564,3.706 -10.266,5.558 -17.112,5.558 -6.995,0 -12.929,-2.779 -17.794,-8.333 -6.542,-7.564 -9.81,-19.37 -9.81,-35.418 v -55.325 h -15.743 v 87.501 c 0,11.726 -2.507,19.059 -7.528,21.992 v 1.157 h 22.812 l 0.459,-21.065 c 3.934,9.26 9.381,15.972 16.349,20.14 4.844,2.778 9.688,4.168 14.532,4.168 C -10.141,6.021 -4.391,4.01 0,0" />
                </g>
                <g transform="translate(665.271,634.7207)" id="g48">
                    <path id="path50" style="fill:#ffffff;fill-opacity:1;fill-rule:nonzero;stroke:none" d="m 0,0 c 0,13.27 -3.688,24.227 -11.063,32.871 -7.379,8.642 -16.693,12.964 -27.948,12.964 -11.258,0 -20.532,-4.322 -27.832,-12.964 C -74.145,24.227 -77.793,13.27 -77.793,0 c 0,-13.275 3.648,-24.229 10.95,-32.871 7.3,-8.645 16.574,-12.964 27.832,-12.964 11.255,0 20.569,4.319 27.948,12.964 C -3.688,-24.229 0,-13.275 0,0 m 16.428,0 c 0,-15.897 -4.717,-29.398 -14.146,-40.51 -10.494,-12.194 -24.336,-18.289 -41.521,-18.289 -15.667,0 -28.745,5.558 -39.239,16.669 -10.495,11.111 -15.743,25.152 -15.743,42.13 0,16.974 5.248,31.019 15.743,42.13 10.494,11.111 23.648,16.669 39.467,16.669 16.121,0 29.39,-5.521 39.811,-16.552 C 11.216,31.21 16.428,17.129 16.428,0" />
                </g>
                <g transform="translate(795.3086,673.6084)" id="g52">
                    <path id="path54" style="fill:#ffffff;fill-opacity:1;fill-rule:nonzero;stroke:none" d="m 0,0 c -6.995,4.632 -15.591,6.947 -25.778,6.947 -11.714,0 -21.333,-4.322 -28.86,-12.964 -7.528,-8.644 -11.292,-19.601 -11.292,-32.871 0,-13.275 3.764,-24.189 11.292,-32.757 7.527,-8.564 17.146,-12.846 28.86,-12.846 10.187,0 18.783,2.315 25.778,6.943 v -14.118 c -7.3,-4.011 -15.893,-6.021 -25.778,-6.021 -16.428,0 -29.965,5.517 -40.608,16.551 -10.65,11.034 -15.972,25.119 -15.972,42.248 0,17.284 5.322,31.442 15.972,42.479 10.643,11.031 24.18,16.552 40.608,16.552 9.885,0 18.478,-2.01 25.778,-6.021 z" />
                </g>
                <g transform="translate(912.1162,673.6084)" id="g56">
                    <path id="path58" style="fill:#ffffff;fill-opacity:1;fill-rule:nonzero;stroke:none" d="m 0,0 c -6.995,4.632 -15.591,6.947 -25.778,6.947 -11.714,0 -21.332,-4.322 -28.861,-12.964 -7.527,-8.644 -11.291,-19.601 -11.291,-32.871 0,-13.275 3.764,-24.189 11.291,-32.757 7.529,-8.564 17.147,-12.846 28.861,-12.846 10.187,0 18.783,2.315 25.778,6.943 v -14.118 c -7.3,-4.011 -15.893,-6.021 -25.778,-6.021 -16.428,0 -29.965,5.517 -40.609,16.551 -10.649,11.034 -15.97,25.119 -15.97,42.248 0,17.284 5.321,31.442 15.97,42.479 10.644,11.031 24.181,16.552 40.609,16.552 9.885,0 18.478,-2.01 25.778,-6.021 z" />
                </g>
                <g transform="translate(1040.5566,634.7207)" id="g60">
                    <path id="path62" style="fill:#ffffff;fill-opacity:1;fill-rule:nonzero;stroke:none" d="m 0,0 c 0,13.27 -3.688,24.227 -11.063,32.871 -7.379,8.642 -16.693,12.964 -27.949,12.964 -11.258,0 -20.532,-4.322 -27.832,-12.964 C -74.146,24.227 -77.794,13.27 -77.794,0 c 0,-13.275 3.648,-24.229 10.95,-32.871 7.3,-8.645 16.574,-12.964 27.832,-12.964 11.256,0 20.57,4.319 27.949,12.964 C -3.688,-24.229 0,-13.275 0,0 m 16.428,0 c 0,-15.897 -4.717,-29.398 -14.147,-40.51 -10.494,-12.194 -24.335,-18.289 -41.52,-18.289 -15.667,0 -28.745,5.558 -39.24,16.669 -10.494,11.111 -15.743,25.152 -15.743,42.13 0,16.974 5.249,31.019 15.743,42.13 10.495,11.111 23.649,16.669 39.467,16.669 16.121,0 29.391,-5.521 39.812,-16.552 C 11.215,31.21 16.428,17.129 16.428,0" />
                </g>
                <g transform="translate(1113.792,579.3955)" id="g64">
                    <path id="path66" style="fill:#ffffff;fill-opacity:1;fill-rule:nonzero;stroke:none" d="m 0,0 h -15.743 v 138.659 c 0,11.726 -2.511,19.058 -7.528,21.991 v 1.158 H 0 Z" />
                </g>
                <g transform="translate(1182.0039,729.6289)" id="g68">
                    <path id="path70" style="fill:#ffffff;fill-opacity:1;fill-rule:nonzero;stroke:none" d="m 0,0 c 0,-2.933 -1.028,-5.439 -3.082,-7.523 -2.051,-2.081 -4.524,-3.125 -7.412,-3.125 -2.894,0 -5.328,1.044 -7.303,3.125 -1.977,2.084 -2.964,4.59 -2.964,7.523 0,2.93 0.987,5.44 2.964,7.524 1.975,2.084 4.409,3.124 7.303,3.124 2.888,0 5.361,-1.04 7.412,-3.124 C -1.028,5.44 0,2.93 0,0 m -2.054,-150.233 h -15.743 v 87.501 c 0,11.726 -2.511,19.058 -7.527,21.992 v 1.157 h 23.27 z" />
                </g>
                <g transform="translate(497.3481,452.3926)" id="g72">
                    <path id="path74" style="fill:#ffffff;fill-opacity:1;fill-rule:nonzero;stroke:none" d="m 0,0 c -3.457,-2.365 -7.741,-3.548 -12.861,-3.548 -6.451,0 -11.788,2.187 -16.012,6.555 -4.226,4.372 -6.337,9.914 -6.337,16.629 0,6.715 2.111,12.257 6.337,16.628 4.224,4.372 9.561,6.557 16.012,6.557 5.285,0 9.572,-1.164 12.861,-3.485 v -4.814 c -3.663,2.872 -8.033,4.307 -13.111,4.307 -4.953,0 -9.052,-1.814 -12.299,-5.445 -3.246,-3.634 -4.868,-8.216 -4.868,-13.748 0,-5.573 1.622,-10.167 4.868,-13.777 3.247,-3.612 7.346,-5.418 12.299,-5.418 5.121,0 9.49,1.414 13.111,4.246 z" />
                </g>
                <g transform="translate(552.7871,472.0928)" id="g76">
                    <path id="path78" style="fill:#ffffff;fill-opacity:1;fill-rule:nonzero;stroke:none" d="m 0,0 c 0,5.573 -1.616,10.167 -4.841,13.775 -3.225,3.613 -7.315,5.419 -12.265,5.419 -4.872,0 -8.928,-1.828 -12.174,-5.48 -3.247,-3.655 -4.872,-8.225 -4.872,-13.714 0,-5.449 1.625,-10 4.872,-13.652 3.246,-3.653 7.302,-5.48 12.174,-5.48 4.868,0 8.936,1.827 12.204,5.48 C -1.634,-10 0,-5.449 0,0 m 4.929,0 c 0,-6.209 -1.871,-11.51 -5.617,-15.899 -4.162,-4.857 -9.676,-7.287 -16.543,-7.287 -6.703,0 -12.113,2.449 -16.233,7.348 -3.746,4.477 -5.62,9.756 -5.62,15.838 0,6.629 2.093,12.161 6.274,16.595 4.184,4.436 9.417,6.653 15.704,6.653 6.365,0 11.632,-2.186 15.794,-6.558 C 2.848,12.318 4.929,6.755 4.929,0" />
                </g>
                <g transform="translate(614.6519,449.8574)" id="g80">
                    <path id="path82" style="fill:#ffffff;fill-opacity:1;fill-rule:nonzero;stroke:none" d="M 0,0 H -4.619 V 36.805 L -18.853,14.252 h -1.622 L -34.583,36.805 V 0 h -4.434 v 36.045 c 0,4.601 -0.73,7.222 -2.185,7.854 v 0.38 h 7.34 l 14.58,-23.775 14.785,23.775 H 0 Z" />
                </g>
                <g transform="translate(658.729,490.2715)" id="g84">
                    <path id="path86" style="fill:#ffffff;fill-opacity:1;fill-rule:nonzero;stroke:none" d="m 0,0 h -17.544 v -16.089 h 16.917 v -3.738 h -16.917 v -20.587 h -4.619 v 36.172 c 0,2.278 -0.107,3.927 -0.323,4.939 -0.298,1.48 -0.94,2.408 -1.926,2.788 v 0.38 L 0,3.865 Z" />
                </g>
                <g transform="translate(713.48,472.0928)" id="g88">
                    <path id="path90" style="fill:#ffffff;fill-opacity:1;fill-rule:nonzero;stroke:none" d="m 0,0 c 0,5.573 -1.616,10.167 -4.841,13.775 -3.225,3.613 -7.315,5.419 -12.265,5.419 -4.872,0 -8.928,-1.828 -12.174,-5.48 -3.247,-3.655 -4.872,-8.225 -4.872,-13.714 0,-5.449 1.625,-10 4.872,-13.652 3.246,-3.653 7.302,-5.48 12.174,-5.48 4.868,0 8.936,1.827 12.204,5.48 C -1.634,-10 0,-5.449 0,0 m 4.929,0 c 0,-6.209 -1.871,-11.51 -5.616,-15.899 -4.163,-4.857 -9.676,-7.287 -16.544,-7.287 -6.703,0 -12.113,2.449 -16.233,7.348 -3.745,4.477 -5.62,9.756 -5.62,15.838 0,6.629 2.093,12.161 6.274,16.595 4.184,4.436 9.417,6.653 15.704,6.653 6.365,0 11.632,-2.186 15.794,-6.558 C 2.848,12.318 4.929,6.755 4.929,0" />
                </g>
                <g transform="translate(754.8066,482.0986)" id="g92">
                    <path id="path94" style="fill:#ffffff;fill-opacity:1;fill-rule:nonzero;stroke:none" d="m 0,0 c 0,5.746 -3.079,8.617 -9.241,8.617 h -4.68 V -8.549 h 4.68 C -3.079,-8.549 0,-5.699 0,0 M 11.239,-32.241 H 5.991 l -5.66,10.084 c -2.333,4.134 -4.335,6.896 -6.003,8.289 -1.415,1.137 -3.189,1.707 -5.312,1.707 h -2.937 v -20.08 h -4.621 V 3.866 c 0,4.56 -0.728,7.159 -2.185,7.792 v 0.38 h 12.298 c 4.038,0 7.251,-1.068 9.646,-3.198 2.394,-2.134 3.591,-4.996 3.591,-8.583 0,-2.535 -0.709,-4.774 -2.124,-6.715 -1.622,-2.155 -3.85,-3.508 -6.679,-4.054 1.832,-0.676 3.557,-2.134 5.182,-4.372 0.791,-1.055 2.099,-3.211 3.934,-6.462 z" />
                </g>
                <g transform="translate(807.8721,490.2715)" id="g96">
                    <path id="path98" style="fill:#ffffff;fill-opacity:1;fill-rule:nonzero;stroke:none" d="m 0,0 h -13.361 v -40.414 h -4.618 V 0 H -31.341 V 3.865 H 0 Z" />
                </g>
                <g transform="translate(870.9873,490.2715)" id="g100">
                    <path id="path102" style="fill:#ffffff;fill-opacity:1;fill-rule:nonzero;stroke:none" d="m 0,0 h -17.544 v -16.089 h 16.917 v -3.738 h -16.917 v -20.587 h -4.619 v 36.172 c 0,2.278 -0.107,3.927 -0.322,4.939 -0.299,1.48 -0.941,2.408 -1.927,2.788 v 0.38 L 0,3.865 Z" />
                </g>
                <g transform="translate(925.7383,472.0928)" id="g104">
                    <path id="path106" style="fill:#ffffff;fill-opacity:1;fill-rule:nonzero;stroke:none" d="m 0,0 c 0,5.573 -1.615,10.167 -4.841,13.775 -3.225,3.613 -7.314,5.419 -12.265,5.419 -4.872,0 -8.927,-1.828 -12.174,-5.48 -3.246,-3.655 -4.871,-8.225 -4.871,-13.714 0,-5.449 1.625,-10 4.871,-13.652 3.247,-3.653 7.302,-5.48 12.174,-5.48 4.868,0 8.936,1.827 12.205,5.48 C -1.634,-10 0,-5.449 0,0 m 4.93,0 c 0,-6.209 -1.872,-11.51 -5.617,-15.899 -4.164,-4.857 -9.676,-7.287 -16.544,-7.287 -6.704,0 -12.113,2.449 -16.233,7.348 -3.746,4.477 -5.62,9.756 -5.62,15.838 0,6.629 2.094,12.161 6.274,16.595 4.184,4.436 9.417,6.653 15.704,6.653 6.365,0 11.632,-2.186 15.794,-6.558 C 2.848,12.318 4.93,6.755 4.93,0" />
                </g>
                <g transform="translate(984.6094,472.0928)" id="g108">
                    <path id="path110" style="fill:#ffffff;fill-opacity:1;fill-rule:nonzero;stroke:none" d="m 0,0 c 0,5.573 -1.616,10.167 -4.841,13.775 -3.225,3.613 -7.315,5.419 -12.265,5.419 -4.872,0 -8.928,-1.828 -12.174,-5.48 -3.247,-3.655 -4.872,-8.225 -4.872,-13.714 0,-5.449 1.625,-10 4.872,-13.652 3.246,-3.653 7.302,-5.48 12.174,-5.48 4.868,0 8.936,1.827 12.204,5.48 C -1.634,-10 0,-5.449 0,0 m 4.929,0 c 0,-6.209 -1.871,-11.51 -5.616,-15.899 -4.164,-4.857 -9.676,-7.287 -16.544,-7.287 -6.704,0 -12.114,2.449 -16.233,7.348 -3.746,4.477 -5.62,9.756 -5.62,15.838 0,6.629 2.093,12.161 6.274,16.595 4.184,4.436 9.417,6.653 15.704,6.653 6.365,0 11.632,-2.186 15.794,-6.558 C 2.848,12.318 4.929,6.755 4.929,0" />
                </g>
                <g transform="translate(1036.9873,471.9658)" id="g112">
                    <path id="path114" style="fill:#ffffff;fill-opacity:1;fill-rule:nonzero;stroke:none" d="m 0,0 c 0,4.897 -1.312,8.994 -3.935,12.288 -3.165,3.971 -7.761,5.956 -13.795,5.956 h -7.243 v -36.487 h 7.243 c 6.034,0 10.63,2.004 13.795,6.017 C -1.312,-8.932 0,-4.856 0,0 m 4.868,0.062 c 0,-5.912 -1.747,-10.938 -5.243,-15.076 -3.955,-4.729 -9.408,-7.094 -16.357,-7.094 h -12.862 v 36.107 c 0,4.56 -0.727,7.159 -2.184,7.792 v 0.38 h 15.046 c 6.949,0 12.402,-2.365 16.357,-7.095 C 3.121,10.979 4.868,5.975 4.868,0.062" />
                </g>
            </g>
        </g>
    </g>
</svg>