<?xml version="1.0" encoding="UTF-8"?>
<svg width="1137px" height="906px" viewBox="0 0 1137 906" version="1.1" xmlns="http://www.w3.org/2000/svg" xmlns:xlink="http://www.w3.org/1999/xlink">
    <!-- Generator: Sketch 53.2 (72643) - https://sketchapp.com -->
    <title>logo</title>
    <desc>Created with Sketch.</desc>
    <defs>
        <polygon id="path-1" points="0 1999.99995 1999.99995 1999.99995 1999.99995 0 0 0"></polygon>
    </defs>
    <g id="Page-1" stroke="none" stroke-width="1" fill="none" fill-rule="evenodd">
        <g id="logo" transform="translate(-439.000000, -496.000000)">
            <g id="g10" transform="translate(999.999975, 1000.000025) scale(-1, 1) rotate(-180.000000) translate(-999.999975, -1000.000025) translate(0.000000, 0.000050)">
                <g id="g12">
                    <g id="g14-Clipped">
                        <mask id="mask-2" fill="white">
                            <use xlink:href="#path-1"></use>
                        </mask>
                        <g id="path16"></g>
                        <g id="g14" mask="url(#mask-2)">
                            <g transform="translate(438.666656, 597.333318)">
                                <g id="g24" transform="translate(339.009058, 398.507857)">
                                    <path d="M414.666656,301.333326 L405.81199,297.069326 L411.57199,289.023993 C415.949323,282.913326 418.901323,276.117326 420.350656,268.81866 C423.051989,255.22266 420.374656,241.373327 412.806656,229.821328 C405.24399,218.270661 393.69599,210.402661 380.293324,207.665328 C373.090657,206.186662 365.845324,206.282662 358.766658,207.935995 L358.749324,207.935995 C361.243991,213.531995 363.831991,219.163995 366.635991,224.867994 L352.073325,232.235994 C317.154659,161.175996 306.031992,96.0599976 297.909326,48.5186655 C296.835993,42.2346656 295.806659,36.2053324 294.770659,30.4413326 C272.783993,44.9639989 244.391994,52.8239987 210.090661,53.8719987 C207.547995,88.1599978 192.387995,131.19733 177.573329,166.225329 C175.570662,170.961329 173.585329,175.510662 171.626662,179.910662 C171.373329,180.481329 171.107996,181.114662 170.855996,181.679995 C156.149329,214.521328 142.655996,239.075994 142.523996,239.322661 L128.318663,231.261328 C128.454663,231.022661 141.614663,207.073328 156.038663,174.851996 C156.813329,173.119996 157.601329,171.325329 158.389329,169.534662 C151.670663,163.478663 143.478663,159.246663 134.54133,157.418663 C121.15733,154.678663 107.497331,157.394663 96.1079976,165.073329 C84.7266645,172.751996 76.9693314,184.465329 74.2719981,198.063995 C72.8453315,205.234662 72.9373315,212.530661 74.5453315,219.745328 L76.7586647,229.647994 L66.7479983,229.821328 C42.9173323,230.223994 22.2013328,247.73866 17.4946662,271.45866 C15.1386663,283.315993 16.9573329,316.621325 26.502666,348.306658 C34.5519991,375.029324 50.3306654,408.742656 79.0666647,417.40399 C86.8999978,419.01599 94.829331,418.718656 102.642664,416.545323 L112.430664,413.821323 L112.922664,424.107989 C114.055997,447.879989 130.89333,467.762655 153.862663,472.458655 C168.822662,475.514655 184.239995,471.685322 196.147995,461.926655 L203.779995,455.674655 L208.427995,464.438655 C215.673328,478.106655 228.417328,487.698654 243.383994,490.762654 C269.455993,496.106654 377.465324,483.183988 391.149324,428.246656 C392.377324,422.063989 392.457324,415.698656 391.39199,409.330656 L389.954657,400.729323 L398.494657,399.746657 C420.637323,397.194657 438.469322,380.58799 442.869322,358.423991 C447.514655,335.050658 435.914656,311.571992 414.666656,301.333326 M429.583989,290.926659 C452.471989,306.045326 464.337322,333.921325 458.822655,361.689324 C453.559989,388.182657 433.734656,408.649323 408.314656,414.73999 C408.59199,420.411989 408.16799,426.114656 407.01599,431.898656 C389.774657,501.141321 267.08266,512.438654 240.170661,506.949321 C223.434661,503.523987 208.811995,493.906654 198.929328,480.077321 C184.537329,488.947988 167.389329,492.055988 150.64933,488.645321 C123.46133,483.083988 102.793331,461.394655 97.7639976,434.349322 C90.4439977,435.315989 82.9399979,435.030656 75.1533315,433.414656 C7.01866649,412.950656 -3.76666657,294.919993 1.54133329,268.197327 C7.13466649,240.034661 29.8359993,218.515995 57.2466652,214.126661 C56.6906652,207.669328 57.0479986,201.199995 58.3186652,194.803995 C61.8773318,176.883996 72.0986649,161.442663 87.1026645,151.32533 C98.2973309,143.775996 111.155997,139.86133 124.295997,139.86133 C128.76933,139.86133 133.27333,140.31733 137.758663,141.231996 C147.774663,143.28133 157.107996,147.587996 165.122663,153.741329 C179.665329,118.547997 193.757328,76.6626648 194.181328,45.6253322 L194.293328,37.4906657 L202.309328,37.4826657 C242.247994,37.4466657 273.47066,28.0959993 295.107993,9.69199976 L305.586659,0.775999981 L308.307992,14.3759996 C310.226659,23.9559994 312.014659,34.4279991 313.941325,45.6973322 C321.019992,87.1279978 329.613325,137.126663 352.417325,193.087995 C353.225325,192.534662 354.114658,192.079995 355.119991,191.845329 C364.471991,189.659995 374.035991,189.543995 383.506657,191.478662 C401.16799,195.089328 416.386656,205.459995 426.361323,220.683994 C436.331989,235.907994 439.862656,254.15866 436.303989,272.083993 C434.985322,278.709326 432.733323,285.017326 429.583989,290.926659" id="path26" fill="#FFFFFF" fill-rule="nonzero"></path>
                                </g>
                                <g id="g28" transform="translate(497.319588, 572.785852)">
                                    <path d="M53.333332,103.999997 C53.889332,77.9253314 49.6426654,55.5439986 45.8493322,41.0213323 C28.9866659,71.2679982 14.737333,91.0093311 14.0386663,91.9759977 L0.92933331,82.1906646 C1.12399997,81.923998 20.6613328,54.8386653 40.5893323,16.3293329 L48.6226655,0.806666647 L55.2959986,16.9786662 C55.9239986,18.4986662 70.6573316,54.8026653 69.6053316,104.354664 L53.333332,103.999997 Z" id="path30" fill="#FFFFFF" fill-rule="nonzero"></path>
                                </g>
                                <g id="g32" transform="translate(591.942652, 553.424519)">
                                    <path d="M30.6666659,46.6666655 C25.5453327,77.5933314 16.2946663,109.991997 15.8093329,111.677331 L0.190666662,107.057331 C0.333333325,106.557331 14.5426663,56.7826652 17.2919996,23.2359994 L19.1906662,0.0959999976 L32.1119992,19.2573329 C33.6146658,21.4866661 68.9919983,74.0106648 78.0013314,93.309331 L63.2959984,100.378664 C57.9959986,89.0279978 41.987999,63.9573317 30.6666659,46.6666655" id="path34" fill="#FFFFFF" fill-rule="nonzero"></path>
                                </g>
                                <g id="g36" transform="translate(612.463585, 456.179722)">
                                    <path d="M17.3333329,73.3333315 C14.577333,67.758665 12.413333,62.0093318 10.0999997,56.2493319 C7.9479998,50.4533321 5.99599985,44.5773322 4.37333322,38.5786657 C2.75199993,32.6013325 -0.25066666,26.6773327 0.405333323,20.2413328 C0.954666643,13.8946663 2.37066661,7.25599982 7.10533316,1.29066663 L8.73199978,1.36799997 C12.9839997,7.52666648 15.0279996,13.017333 16.6093329,18.7466662 C18.2973329,24.3906661 16.9999996,30.4773326 17.2253329,36.4746658 L18.9066662,72.9119982 L17.3333329,73.3333315 Z" id="path38" fill="#FFFFFF" fill-rule="nonzero"></path>
                                </g>
                                <g id="g40" transform="translate(0.075467, 174.355462)">
                                    <path d="M117.33333,61.3333318 C117.33333,73.4719982 113.783997,83.3493312 106.687997,90.9639977 C98.3706642,100.015997 86.0053312,104.543997 69.5786649,104.543997 L34.2906658,104.543997 L34.2906658,18.1226662 L69.5786649,18.1226662 C86.0053312,18.1226662 98.3706642,22.5439994 106.687997,31.3946659 C113.783997,39.0066657 117.33333,48.9879988 117.33333,61.3333318 M105.470664,160.099996 C105.470664,171.210662 102.127997,180.262662 95.4346643,187.259995 C87.7253311,195.078662 76.7759981,198.987995 62.5813318,198.987995 L34.2906658,198.987995 L34.2906658,120.903997 L62.5813318,120.903997 C76.7759981,120.903997 87.7253311,124.80933 95.4346643,132.631997 C102.127997,139.62533 105.470664,148.779996 105.470664,160.099996 M141.062663,59.7906652 C141.062663,44.9746655 135.88933,32.0119992 125.54933,20.9013328 C113.174664,7.52399981 95.7386643,0.838666646 73.2306648,0.838666646 L11.7826664,0.838666646 L11.7826664,176.767996 C11.7826664,198.987995 8.23333313,211.646661 1.1373333,214.730661 L1.1373333,216.582661 L66.5359983,216.582661 C87.2226645,216.582661 102.833331,210.921328 113.382664,199.606662 C122.095997,190.141329 126.46133,178.410662 126.46133,164.422663 C126.46133,138.698663 115.91333,122.54533 94.825331,115.963997 C125.650664,109.377331 141.062663,90.6546644 141.062663,59.7906652" id="path42" fill="#FFFFFF" fill-rule="nonzero"></path>
                                </g>
                                <g id="g44" transform="translate(189.923862, 175.023462)">
                                    <path d="M95.9999976,143.999996 L91.4399977,124.86133 C85.3546645,129.802663 77.7519981,132.271997 68.6239983,132.271997 C59.2973319,132.271997 51.385332,128.566663 44.8986655,121.16133 C36.1759991,111.075997 31.8186659,95.3346643 31.8186659,73.9373315 L31.8186659,0.170666662 L10.8279997,0.170666662 L10.8279997,116.838664 C10.8279997,132.47333 7.48533315,142.250663 0.790666647,146.16133 L0.790666647,147.703996 L31.2066659,147.703996 L31.8186659,119.61733 C37.0639991,131.963997 44.3266656,140.91333 53.617332,146.470663 C60.0759985,150.174663 66.534665,152.027996 72.9933315,152.027996 C82.4786646,152.027996 90.1453311,149.346663 95.9999976,143.999996" id="path46" fill="#FFFFFF" fill-rule="nonzero"></path>
                                </g>
                                <g id="g48" transform="translate(321.694659, 170.294262)">
                                    <path d="M126.666663,78.6666647 C126.666663,96.3599976 121.74933,110.969331 111.915997,122.494664 C102.077331,134.01733 89.6586644,139.779997 74.6519981,139.779997 C59.6413318,139.779997 47.2759988,134.01733 37.5426657,122.494664 C27.806666,110.969331 22.9426661,96.3599976 22.9426661,78.6666647 C22.9426661,60.9666651 27.806666,46.3613322 37.5426657,34.8386658 C47.2759988,23.3119994 59.6413318,17.5533329 74.6519981,17.5533329 C89.6586644,17.5533329 102.077331,23.3119994 111.915997,34.8386658 C121.74933,46.3613322 126.666663,60.9666651 126.666663,78.6666647 M148.570663,78.6666647 C148.570663,57.4706652 142.28133,39.4693323 129.70933,24.6533327 C115.71733,8.39466646 97.2613309,0.267999993 74.3479981,0.267999993 C53.4586653,0.267999993 36.0213324,7.67866647 22.0293328,22.4933328 C8.0359998,37.3079991 1.03866664,56.0293319 1.03866664,78.6666647 C1.03866664,101.298664 8.0359998,120.02533 22.0293328,134.839997 C36.0213324,149.654663 53.5599987,157.065329 74.6519981,157.065329 C96.1466643,157.065329 113.838664,149.703996 127.73333,134.995997 C141.62133,120.279997 148.570663,101.505331 148.570663,78.6666647" id="path50" fill="#FFFFFF" fill-rule="nonzero"></path>
                                </g>
                                <g id="g52" transform="translate(511.078121, 170.144529)">
                                    <path d="M110.666664,130.666663 C101.339997,136.842663 89.8786644,139.92933 76.2959981,139.92933 C60.6773318,139.92933 47.8519988,134.166663 37.8159991,122.643997 C27.778666,111.118664 22.7599994,96.5093309 22.7599994,78.815998 C22.7599994,61.1159985 27.778666,46.5639988 37.8159991,35.1399991 C47.8519988,23.7213327 60.6773318,18.0119995 76.2959981,18.0119995 C89.8786644,18.0119995 101.339997,21.0986661 110.666664,27.2693327 L110.666664,8.44533312 C100.933331,3.09733326 89.4759978,0.417333323 76.2959981,0.417333323 C54.3919986,0.417333323 36.3426658,7.77333314 22.1519994,22.4853328 C7.9519998,37.1973324 0.855999979,55.9773319 0.855999979,78.815998 C0.855999979,101.861331 7.9519998,120.738664 22.1519994,135.454663 C36.3426658,150.162663 54.3919986,157.523996 76.2959981,157.523996 C89.4759978,157.523996 100.933331,154.843996 110.666664,149.495996 L110.666664,130.666663 Z" id="path54" fill="#FFFFFF" fill-rule="nonzero"></path>
                                </g>
                                <g id="g56" transform="translate(666.821583, 170.144529)">
                                    <path d="M110.666664,130.666663 C101.339997,136.842663 89.8786644,139.92933 76.2959981,139.92933 C60.6773318,139.92933 47.8533321,134.166663 37.8146657,122.643997 C27.778666,111.118664 22.7599994,96.5093309 22.7599994,78.815998 C22.7599994,61.1159985 27.778666,46.5639988 37.8146657,35.1399991 C47.8533321,23.7213327 60.6773318,18.0119995 76.2959981,18.0119995 C89.8786644,18.0119995 101.339997,21.0986661 110.666664,27.2693327 L110.666664,8.44533312 C100.933331,3.09733326 89.4759978,0.417333323 76.2959981,0.417333323 C54.3919986,0.417333323 36.3426658,7.77333314 22.1506661,22.4853328 C7.9519998,37.1973324 0.857333312,55.9773319 0.857333312,78.815998 C0.857333312,101.861331 7.9519998,120.738664 22.1506661,135.454663 C36.3426658,150.162663 54.3919986,157.523996 76.2959981,157.523996 C89.4759978,157.523996 100.933331,154.843996 110.666664,149.495996 L110.666664,130.666663 Z" id="path58" fill="#FFFFFF" fill-rule="nonzero"></path>
                                </g>
                                <g id="g60" transform="translate(822.075446, 170.294262)">
                                    <path d="M126.666663,78.6666647 C126.666663,96.3599976 121.74933,110.969331 111.915997,122.494664 C102.077331,134.01733 89.6586644,139.779997 74.6506648,139.779997 C59.6399985,139.779997 47.2746655,134.01733 37.5413324,122.494664 C27.8053326,110.969331 22.9413328,96.3599976 22.9413328,78.6666647 C22.9413328,60.9666651 27.8053326,46.3613322 37.5413324,34.8386658 C47.2746655,23.3119994 59.6399985,17.5533329 74.6506648,17.5533329 C89.6586644,17.5533329 102.077331,23.3119994 111.915997,34.8386658 C121.74933,46.3613322 126.666663,60.9666651 126.666663,78.6666647 M148.570663,78.6666647 C148.570663,57.4706652 142.28133,39.4693323 129.707997,24.6533327 C115.715997,8.39466646 97.2613309,0.267999993 74.3479981,0.267999993 C53.4586653,0.267999993 36.0213324,7.67866647 22.0279994,22.4933328 C8.0359998,37.3079991 1.03733331,56.0293319 1.03733331,78.6666647 C1.03733331,101.298664 8.0359998,120.02533 22.0279994,134.839997 C36.0213324,149.654663 53.5599987,157.065329 74.6506648,157.065329 C96.1453309,157.065329 113.838664,149.703996 127.73333,134.995997 C141.619996,120.279997 148.570663,101.505331 148.570663,78.6666647" id="path62" fill="#FFFFFF" fill-rule="nonzero"></path>
                                </g>
                                <g id="g64" transform="translate(1014.389308, 175.193996)">
                                    <path d="M31.9999992,0 L11.0093331,0 L11.0093331,184.878662 C11.0093331,200.513328 7.66133314,210.289328 0.971999976,214.199995 L0.971999976,215.743995 L31.9999992,215.743995 L31.9999992,0 Z" id="path66" fill="#FFFFFF" fill-rule="nonzero"></path>
                                </g>
                                <g id="g68" transform="translate(1102.671839, 174.171862)">
                                    <path d="M34.6666658,201.333328 C34.6666658,197.422662 33.2959992,194.081328 30.5573326,191.302662 C27.822666,188.527995 24.5253327,187.135995 20.6746661,187.135995 C16.8159996,187.135995 13.5706663,188.527995 10.9373331,191.302662 C8.30133313,194.081328 6.98533316,197.422662 6.98533316,201.333328 C6.98533316,205.239995 8.30133313,208.586661 10.9373331,211.365328 C13.5706663,214.143995 16.8159996,215.530661 20.6746661,215.530661 C24.5253327,215.530661 27.822666,214.143995 30.5573326,211.365328 C33.2959992,208.586661 34.6666658,205.239995 34.6666658,201.333328 L34.6666658,201.333328 Z M31.9279992,1.02266664 L10.9373331,1.02266664 L10.9373331,117.690664 C10.9373331,133.32533 7.58933314,143.10133 0.901333311,147.01333 L0.901333311,148.555996 L31.9279992,148.555996 L31.9279992,1.02266664 Z" id="path70" fill="#FFFFFF" fill-rule="nonzero"></path>
                                </g>
                                <g id="g72" transform="translate(176.464129, 0.523467)">
                                    <path d="M47.9999988,5.3333332 C43.3906656,2.17999995 37.6786657,0.602666652 30.8519992,0.602666652 C22.2506661,0.602666652 15.1346663,3.51866658 9.50266643,9.34266643 C3.8679999,15.1719996 1.05333331,22.5613328 1.05333331,31.5146659 C1.05333331,40.467999 3.8679999,47.8573321 9.50266643,53.685332 C15.1346663,59.5146652 22.2506661,62.4279984 30.8519992,62.4279984 C37.8986657,62.4279984 43.6146656,60.8759985 47.9999988,57.7813319 L47.9999988,51.3626654 C43.1159989,55.1919986 37.2893324,57.1053319 30.5186659,57.1053319 C23.9146661,57.1053319 18.4493329,54.6866653 14.1199996,49.8453321 C9.79199976,44.9999989 7.62933314,38.8906657 7.62933314,31.5146659 C7.62933314,24.0839994 9.79199976,17.9586662 14.1199996,13.145333 C18.4493329,8.32933313 23.9146661,5.92133319 30.5186659,5.92133319 C37.3466657,5.92133319 43.1719989,7.80666647 47.9999988,11.5826664 L47.9999988,5.3333332 Z" id="path74" fill="#FFFFFF" fill-rule="nonzero"></path>
                                </g>
                                <g id="g76" transform="translate(245.049461, 0.123733)">
                                    <path d="M53.333332,31.9999992 C53.333332,39.4306657 51.1786654,45.5559989 46.8786655,50.3666654 C42.5786656,55.1839986 37.1253324,57.5919986 30.5253326,57.5919986 C24.0293327,57.5919986 18.6213329,55.1546653 14.293333,50.2853321 C9.96399975,45.4119989 7.79733314,39.3186657 7.79733314,31.9999992 C7.79733314,24.734666 9.96399975,18.6666662 14.293333,13.797333 C18.6213329,8.92666644 24.0293327,6.4906665 30.5253326,6.4906665 C37.0159991,6.4906665 42.4399989,8.92666644 46.7973322,13.797333 C51.1546654,18.6666662 53.333332,24.734666 53.333332,31.9999992 M59.9053318,31.9999992 C59.9053318,23.7213327 57.4106652,16.6533329 52.4159987,10.8013331 C46.8666655,4.32533323 39.5146657,1.08533331 30.3586659,1.08533331 C21.4213328,1.08533331 14.2079996,4.35066656 8.71466645,10.8826664 C3.71999991,16.8519996 1.2213333,23.8906661 1.2213333,31.9999992 C1.2213333,40.8386656 4.0119999,48.2146655 9.58666643,54.1266653 C15.165333,60.0413318 22.1426661,62.9973318 30.5253326,62.9973318 C39.011999,62.9973318 46.0346655,60.0826652 51.5839987,54.253332 C57.1306652,48.4239988 59.9053318,41.0066656 59.9053318,31.9999992" id="path78" fill="#FFFFFF" fill-rule="nonzero"></path>
                                </g>
                                <g id="g80" transform="translate(324.869192, 2.476533)">
                                    <path d="M55.9999986,0 L49.8413321,0 L49.8413321,49.0733321 L30.8626659,19.0026662 L28.6999993,19.0026662 L9.88933309,49.0733321 L9.88933309,0 L3.97733323,0 L3.97733323,48.0599988 C3.97733323,54.1946653 3.00399992,57.6893319 1.06399997,58.5319985 L1.06399997,59.0386652 L10.8506664,59.0386652 L30.2906659,27.338666 L50.0039987,59.0386652 L55.9999986,59.0386652 L55.9999986,0 Z" id="path82" fill="#FFFFFF" fill-rule="nonzero"></path>
                                </g>
                                <g id="g84" transform="translate(406.305323, 1.695333)">
                                    <path d="M33.3333325,54.6666653 L9.94133308,54.6666653 L9.94133308,33.2146658 L32.4973325,33.2146658 L32.4973325,28.230666 L9.94133308,28.230666 L9.94133308,0.781333314 L3.78266657,0.781333314 L3.78266657,49.0106654 C3.78266657,52.0479987 3.63999991,54.2466653 3.35199992,55.5959986 C2.95466659,57.5693319 2.09866661,58.8066652 0.78399998,59.3133319 L0.78399998,59.8199985 L33.3333325,59.8199985 L33.3333325,54.6666653 Z" id="path86" fill="#FFFFFF" fill-rule="nonzero"></path>
                                </g>
                                <g id="g88" transform="translate(459.306655, 0.123733)">
                                    <path d="M53.333332,31.9999992 C53.333332,39.4306657 51.1786654,45.5559989 46.8786655,50.3666654 C42.5786656,55.1839986 37.1253324,57.5919986 30.5253326,57.5919986 C24.0293327,57.5919986 18.6213329,55.1546653 14.293333,50.2853321 C9.96399975,45.4119989 7.79733314,39.3186657 7.79733314,31.9999992 C7.79733314,24.734666 9.96399975,18.6666662 14.293333,13.797333 C18.6213329,8.92666644 24.0293327,6.4906665 30.5253326,6.4906665 C37.0159991,6.4906665 42.4399989,8.92666644 46.7973322,13.797333 C51.1546654,18.6666662 53.333332,24.734666 53.333332,31.9999992 M59.9053318,31.9999992 C59.9053318,23.7213327 57.4106652,16.6533329 52.417332,10.8013331 C46.8666655,4.32533323 39.515999,1.08533331 30.3586659,1.08533331 C21.4213328,1.08533331 14.2079996,4.35066656 8.71466645,10.8826664 C3.72133324,16.8519996 1.2213333,23.8906661 1.2213333,31.9999992 C1.2213333,40.8386656 4.0119999,48.2146655 9.58666643,54.1266653 C15.165333,60.0413318 22.1426661,62.9973318 30.5253326,62.9973318 C39.011999,62.9973318 46.0346655,60.0826652 51.5839987,54.253332 C57.1306652,48.4239988 59.9053318,41.0066656 59.9053318,31.9999992" id="path90" fill="#FFFFFF" fill-rule="nonzero"></path>
                                </g>
                                <g id="g92" transform="translate(539.742120, 1.464800)">
                                    <path d="M27.9999993,43.9999989 C27.9999993,51.661332 23.8946661,55.4893319 15.6786663,55.4893319 L9.43866643,55.4893319 L9.43866643,32.6013325 L15.6786663,32.6013325 C23.8946661,32.6013325 27.9999993,36.4013324 27.9999993,43.9999989 L27.9999993,43.9999989 Z M42.9853323,1.01199997 L35.9879991,1.01199997 L28.4413326,14.457333 C25.330666,19.9693328 22.6613328,23.6519994 20.4373328,25.5093327 C18.5506662,27.0253327 16.1853329,27.7853326 13.3546663,27.7853326 L9.43866643,27.7853326 L9.43866643,1.01199997 L3.27733325,1.01199997 L3.27733325,49.1546654 C3.27733325,55.2346653 2.30666661,58.6999985 0.363999991,59.5439985 L0.363999991,60.0506652 L16.7613329,60.0506652 C22.1453328,60.0506652 26.4293327,58.6266652 29.6226659,55.7866653 C32.8146658,52.941332 34.4106658,49.1253321 34.4106658,44.3426656 C34.4106658,40.9626656 33.4653325,37.9773324 31.5786659,35.3893324 C29.4159993,32.5159992 26.4453327,30.7119992 22.6733328,29.9839993 C25.1159994,29.0826659 27.4159993,27.138666 29.5826659,24.1546661 C30.6373326,22.7479994 32.3813325,19.8733328 34.8279991,15.5386663 L42.9853323,1.01199997 Z" id="path94" fill="#FFFFFF" fill-rule="nonzero"></path>
                                </g>
                                <g id="g96" transform="translate(595.829452, 1.695333)">
                                    <polygon id="path98" fill="#FFFFFF" fill-rule="nonzero" points="42.6666656 54.6666653 24.8519994 54.6666653 24.8519994 0.781333314 18.6946662 0.781333314 18.6946662 54.6666653 0.878666645 54.6666653 0.878666645 59.8199985 42.6666656 59.8199985"></polygon>
                                </g>
                                <g id="g100" transform="translate(689.316383, 1.695333)">
                                    <path d="M33.3333325,54.6666653 L9.94133308,54.6666653 L9.94133308,33.2146658 L32.4973325,33.2146658 L32.4973325,28.230666 L9.94133308,28.230666 L9.94133308,0.781333314 L3.78266657,0.781333314 L3.78266657,49.0106654 C3.78266657,52.0479987 3.63999991,54.2466653 3.35333325,55.5959986 C2.95466659,57.5693319 2.09866661,58.8066652 0.78399998,59.3133319 L0.78399998,59.8199985 L33.3333325,59.8199985 L33.3333325,54.6666653 Z" id="path102" fill="#FFFFFF" fill-rule="nonzero"></path>
                                </g>
                                <g id="g104" transform="translate(742.317715, 0.123733)">
                                    <path d="M53.333332,31.9999992 C53.333332,39.4306657 51.1799987,45.5559989 46.8786655,50.3666654 C42.5786656,55.1839986 37.1266657,57.5919986 30.5253326,57.5919986 C24.0293327,57.5919986 18.6226662,55.1546653 14.293333,50.2853321 C9.96533308,45.4119989 7.79866647,39.3186657 7.79866647,31.9999992 C7.79866647,24.734666 9.96533308,18.6666662 14.293333,13.797333 C18.6226662,8.92666644 24.0293327,6.4906665 30.5253326,6.4906665 C37.0159991,6.4906665 42.4399989,8.92666644 46.7986655,13.797333 C51.1546654,18.6666662 53.333332,24.734666 53.333332,31.9999992 M59.9066652,31.9999992 C59.9066652,23.7213327 57.4106652,16.6533329 52.417332,10.8013331 C46.8653322,4.32533323 39.515999,1.08533331 30.3586659,1.08533331 C21.4199995,1.08533331 14.2079996,4.35066656 8.71466645,10.8826664 C3.71999991,16.8519996 1.2213333,23.8906661 1.2213333,31.9999992 C1.2213333,40.8386656 4.01333323,48.2146655 9.58666643,54.1266653 C15.165333,60.0413318 22.1426661,62.9973318 30.5253326,62.9973318 C39.011999,62.9973318 46.0346655,60.0826652 51.5839987,54.253332 C57.1306652,48.4239988 59.9066652,41.0066656 59.9066652,31.9999992" id="path106" fill="#FFFFFF" fill-rule="nonzero"></path>
                                </g>
                                <g id="g108" transform="translate(820.812513, 0.123733)">
                                    <path d="M53.333332,31.9999992 C53.333332,39.4306657 51.1786654,45.5559989 46.8786655,50.3666654 C42.5786656,55.1839986 37.1253324,57.5919986 30.5253326,57.5919986 C24.0293327,57.5919986 18.6213329,55.1546653 14.293333,50.2853321 C9.96399975,45.4119989 7.79733314,39.3186657 7.79733314,31.9999992 C7.79733314,24.734666 9.96399975,18.6666662 14.293333,13.797333 C18.6213329,8.92666644 24.0293327,6.4906665 30.5253326,6.4906665 C37.0159991,6.4906665 42.4399989,8.92666644 46.7973322,13.797333 C51.1546654,18.6666662 53.333332,24.734666 53.333332,31.9999992 M59.9053318,31.9999992 C59.9053318,23.7213327 57.4106652,16.6533329 52.417332,10.8013331 C46.8653322,4.32533323 39.515999,1.08533331 30.3586659,1.08533331 C21.4199995,1.08533331 14.2066663,4.35066656 8.71466645,10.8826664 C3.71999991,16.8519996 1.2213333,23.8906661 1.2213333,31.9999992 C1.2213333,40.8386656 4.0119999,48.2146655 9.58666643,54.1266653 C15.165333,60.0413318 22.1426661,62.9973318 30.5253326,62.9973318 C39.011999,62.9973318 46.0346655,60.0826652 51.5839987,54.253332 C57.1306652,48.4239988 59.9053318,41.0066656 59.9053318,31.9999992" id="path110" fill="#FFFFFF" fill-rule="nonzero"></path>
                                </g>
                                <g id="g112" transform="translate(901.316377, 1.287733)">
                                    <path d="M42.6666656,30.6666659 C42.6666656,37.1959991 40.9173323,42.6586656 37.4199991,47.0506655 C33.1999992,52.345332 27.0719993,54.9919986 19.0266662,54.9919986 L9.3693331,54.9919986 L9.3693331,6.34266651 L19.0266662,6.34266651 C27.0719993,6.34266651 33.1999992,9.01466644 37.4199991,14.365333 C40.9173323,18.7573329 42.6666656,24.1919994 42.6666656,30.6666659 M49.1573321,30.7493326 C49.1573321,22.8666661 46.8279988,16.1653329 42.1666656,10.6479997 C36.8933324,4.34266656 29.6226659,1.1893333 20.3573328,1.1893333 L3.20799992,1.1893333 L3.20799992,49.3319988 C3.20799992,55.4119986 2.23866661,58.8773319 0.295999993,59.7213318 L0.295999993,60.2279985 L20.3573328,60.2279985 C29.6226659,60.2279985 36.8933324,57.0746652 42.1666656,50.7679987 C46.8279988,45.3053322 49.1573321,38.6333324 49.1573321,30.7493326" id="path114" fill="#FFFFFF" fill-rule="nonzero"></path>
                                </g>
                            </g>
                        </g>
                    </g>
                </g>
            </g>
        </g>
    </g>
</svg>